PathFileType	4	(X/Y/Z)	output.trc
DataRate	CameraRate	NumFrames	NumMarkers	Units	OrigDataRate	OrigDataStartFrame	OrigNumFrames
128	128	7	47	mm	128	376	1000
Frame#	Time	C7			LSHO			RSHO			CLAV			T10			LUPA			RELB			LELB			LFRA			RFRA			RWRB			RWRA			RFIN			LWRB			LWRA			LFIN			RASI			LASI			RPSI			LPSI			RANK			LANK			LMMA			LHEE			LTOE			RMMA			RHEE			RTOE			RMT5			LMT5			RKNE			LKNE			LMFC			RMFC			RFM2			LFM2			RTP2			RTP3			RTA3			LTP2			LTP3			LTA3			LBHD			RBHD			RFHD			RGTR			LGTR			
		X1	Y1	Z1	X2	Y2	Z2	X3	Y3	Z3	X4	Y4	Z4	X5	Y5	Z5	X6	Y6	Z6	X7	Y7	Z7	X8	Y8	Z8	X9	Y9	Z9	X10	Y10	Z10	X11	Y11	Z11	X12	Y12	Z12	X13	Y13	Z13	X14	Y14	Z14	X15	Y15	Z15	X16	Y16	Z16	X17	Y17	Z17	X18	Y18	Z18	X19	Y19	Z19	X20	Y20	Z20	X21	Y21	Z21	X22	Y22	Z22	X23	Y23	Z23	X24	Y24	Z24	X25	Y25	Z25	X26	Y26	Z26	X27	Y27	Z27	X28	Y28	Z28	X29	Y29	Z29	X30	Y30	Z30	X31	Y31	Z31	X32	Y32	Z32	X33	Y33	Z33	X34	Y34	Z34	X35	Y35	Z35	X36	Y36	Z36	X37	Y37	Z37	X38	Y38	Z38	X39	Y39	Z39	X40	Y40	Z40	X41	Y41	Z41	X42	Y42	Z42	X43	Y43	Z43	X44	Y44	Z44	X45	Y45	Z45	X46	Y46	Z46	X47	Y47	Z47	

376	2.92969	1546.99615	1524.47852	1520.89785	1462.70444	1267.31313	1403.83407	1126.49692	1132.58237	1033.81034	1027.93879	873.71126	891.72174	802.42071	892.34812	892.70380	795.41350	1042.35602	1042.28254	1123.12936	1128.21963	65.64775	67.03760	80.33679	26.97278	39.29415	52.59452	23.12237	35.62907	26.28106	25.30637	508.22286	515.77439	516.75483	526.35434	602.38821	646.97469	273.45377	325.52035	299.82346	290.12078	354.04041	310.23949	1430.79084	1830.79084	1460.79084	1430.79084	1830.79084	1600.79084	1630.79084	1830.79084	1600.79084	873.71126	892.34812	
377	2.93750	1547.01522	1524.54247	1520.90911	1462.69433	1267.37798	1403.79501	1126.56205	1132.57865	1033.78374	1027.92104	873.70849	891.67210	802.37790	892.29254	892.64957	795.36994	1042.34628	1042.36789	1123.13690	1128.20633	65.62638	67.04346	80.31559	26.96177	39.27942	52.60379	23.16327	35.63732	26.17053	25.27795	508.21958	515.80585	516.76064	526.36034	602.36393	646.89142	273.47485	325.51739	299.77049	290.12009	354.04094	310.31871	1430.82226	1830.82226	1460.82226	1430.82226	1830.82226	1600.82226	1630.82226	1830.82226	1600.82226	873.70849	892.29254	
378	2.94531	1547.03168	1524.49786	1520.93373	1462.67266	1267.44604	1403.78257	1126.55546	1132.58151	1033.77067	1027.90617	873.65268	891.60839	802.29185	892.22164	892.62124	795.29427	1042.30050	1042.24558	1123.17150	1128.21577	65.60782	67.03685	80.30784	26.93386	39.28797	52.60243	23.12495	35.58875	26.24343	25.30682	508.19194	515.74586	516.76633	526.37953	602.38484	646.94961	273.41918	325.55075	299.76912	290.12591	354.03783	310.30219	1430.82109	1830.82109	1460.82109	1430.82109	1830.82109	1600.82109	1630.82109	1830.82109	1600.82109	873.65268	892.22164	
379	2.95312	1547.05395	1524.54992	1520.93042	1462.67067	1267.46741	1403.79860	1126.59335	1132.55977	1033.74425	1027.87479	873.61424	891.58580	802.18685	892.17923	892.56492	795.25801	1042.27475	1042.22102	1123.18480	1128.27968	65.62103	67.03974	80.30567	26.95980	39.30410	52.62599	23.12831	35.54597	26.25912	25.28614	508.23260	515.78002	516.77629	526.34445	602.36415	646.95486	273.44669	325.51969	299.79634	290.12916	354.06743	310.34441	1430.84476	1830.84476	1460.84476	1430.84476	1830.84476	1600.84476	1630.84476	1830.84476	1600.84476	873.61424	892.17923	
380	2.96094	1547.10090	1524.55857	1520.99741	1462.62751	1267.54282	1403.76456	1126.61005	1132.55530	1033.67309	1027.83708	873.58093	891.56247	802.19496	892.09467	892.52035	795.21166	1042.27407	1042.23996	1123.23359	1128.28161	65.57757	67.04320	80.30057	26.97262	39.29125	52.62980	23.14779	35.62602	26.21382	25.34936	508.20989	515.78170	516.80248	526.34692	602.38516	646.97684	273.46962	325.52635	299.78912	290.14997	354.04844	310.35933	1430.88563	1830.88563	1460.88563	1430.88563	1830.88563	1600.88563	1630.88563	1830.88563	1600.88563	873.58093	892.09467	
381	2.96875	1547.11876	1524.59069	1521.03007	1462.64286	1267.59259	1403.75144	1126.64937	1132.55992	1033.67877	1027.84585	873.56777	891.53046	802.08193	892.02264	892.44912	795.16636	1042.23174	1042.18706	1123.31667	1128.33180	65.62270	67.02684	80.29081	26.96052	39.26194	52.61682	23.12316	35.61196	26.23608	25.32250	508.16914	515.76457	516.81339	526.34685	602.34846	646.93820	273.40558	325.52106	299.82921	290.16965	354.07210	310.28137	1430.91317	1830.91317	1460.91317	1430.91317	1830.91317	1600.91317	1630.91317	1830.91317	1600.91317	873.56777	892.02264	
382	2.97656	1547.15932	1524.60436	1521.04217	1462.65058	1267.65896	1403.74079	1126.68031	1132.57158	1033.64961	1027.83503	873.57043	891.49539	802.03958	891.94034	892.39864	795.13676	1042.21553	1042.28807	1123.30593	1128.37974	65.61224	67.02991	80.31467	26.97552	39.28889	52.63801	23.14791	35.63389	26.25827	25.35440	508.21186	515.69730	516.78427	526.35288	602.31827	646.91903	273.41149	325.51220	299.80051	290.11164	354.04639	310.34950	1430.93528	1830.93528	1460.93528	1430.93528	1830.93528	1600.93528	1630.93528	1830.93528	1600.93528	873.57043	891.94034	
